<svg width="231" height="90" viewBox="0 0 231 90" fill="none" xmlns="http://www.w3.org/2000/svg">
<path d="M207.52 33.8313C198.347 39.3907 195.289 58.0148 198.903 60.5164C197.884 60.7945 194.4 62.3512 188.618 66.354C182.836 70.3568 182.873 74.8784 183.614 76.6389C184.078 77.5655 186.561 79.6966 192.787 80.8085C200.571 82.1984 210.856 75.805 216.971 68.5778C223.086 61.3505 235.595 35.221 226.7 32.9972C219.584 31.2182 213.172 40.9658 210.856 46.0619C211.041 44.7647 211.745 42.7264 211.967 39.3907C212.19 36.0551 209.744 32.7194 207.52 33.8313Z" fill="white"/>
<path d="M207.52 33.8313C198.347 39.3907 195.289 58.0148 198.903 60.5164C197.884 60.7945 194.4 62.3512 188.618 66.354C182.836 70.3568 182.873 74.8784 183.614 76.6389C184.078 77.5655 186.561 79.6966 192.787 80.8085C200.571 82.1984 210.856 75.805 216.971 68.5778C223.086 61.3505 235.595 35.221 226.7 32.9972C219.584 31.2182 213.172 40.9658 210.856 46.0619C211.041 44.7647 211.745 42.7264 211.967 39.3907C212.19 36.0551 209.744 32.7194 207.52 33.8313Z" stroke="#B4B4B4" stroke-width="0.2"/>
<path d="M207.52 33.8313C198.347 39.3907 195.289 58.0148 198.903 60.5164C197.884 60.7945 194.4 62.3512 188.618 66.354C182.836 70.3568 182.873 74.8784 183.614 76.6389C184.078 77.5655 186.561 79.6966 192.787 80.8085C200.571 82.1984 210.856 75.805 216.971 68.5778C223.086 61.3505 235.595 35.221 226.7 32.9972C219.584 31.2182 213.172 40.9658 210.856 46.0619C211.041 44.7647 211.745 42.7264 211.967 39.3907C212.19 36.0551 209.744 32.7194 207.52 33.8313Z" stroke="white" stroke-width="0.2"/>
<path d="M199.179 60.0532C197.614 59.3898 195.625 55.2026 200.198 43.7607C204.77 32.3188 208.493 32.7479 209.923 33.4022C212.575 34.2912 212.87 41.1018 211.073 45.1912M199.179 60.0532C184.817 65.042 182.009 73.0481 183.635 76.3193C185.405 79.8812 196.518 83.226 206.7 76.9575C216.882 70.689 220.548 63.1697 222.742 59.8663C224.936 56.5629 228.167 48.627 228.742 45.8554C229.317 43.0838 231.672 33.7043 227.188 32.5307C225.302 32.037 221.721 31.6786 216.41 37.667C213.668 40.7585 209.017 48.5945 208.239 51.3891M199.179 60.0532C201.371 59.3096 207.238 57.927 213.175 58.3456" stroke="black" stroke-width="2" stroke-linecap="round" stroke-linejoin="round"/>
<path d="M169.695 40.2117C169.695 40.2117 154.764 39.1634 153.846 51.2095C152.928 63.2557 167.415 69.2435 171.794 69.8685C176.868 70.5842 185.584 69.3342 186.391 63.1751C186.391 63.1751 190.719 66.9552 193.05 66.6831C197.418 66.1689 198.992 56.7941 191.254 43.8508C183.516 30.9075 173.307 27.9136 168.939 30.101C162.724 33.2058 169.705 40.2218 169.705 40.2218L169.695 40.2117Z" fill="#F1F1F1" stroke="black" stroke-width="2" stroke-miterlimit="10"/>
<path d="M164.076 49.7378C164.076 49.7378 173.751 56.7437 176.566 63.2557L164.076 49.7378Z" fill="#F1F1F1"/>
<path d="M164.076 49.7378C164.076 49.7378 173.751 56.7437 176.566 63.2557" stroke="black" stroke-width="2" stroke-miterlimit="10"/>
<path d="M17.6953 66.6445C7.96875 66.6445 2.10938 59.9062 2.10938 50.1797C2.10938 40.4531 8.02734 33.7734 17.6953 33.7734C25.8984 33.7734 31.4648 38.5781 31.8164 45.8438H23.6719C23.1445 42.6797 21.0938 40.5117 17.8125 40.5117C13.6523 40.5117 10.8984 44.0273 10.8984 50.0625C10.8984 56.2148 13.5938 59.7305 17.8125 59.7305C20.8594 59.7305 23.1445 57.8555 23.6719 54.457H31.8164C31.4062 61.6641 26.1328 66.6445 17.6953 66.6445ZM31.4836 57.0938C31.4836 50.0039 37.2258 47.6602 43.3195 47.3086C45.6047 47.1621 49.882 46.957 51.2297 46.8984V44.3203C51.1711 41.6836 49.3547 40.1016 46.132 40.1016C43.2023 40.1016 41.3273 41.4492 40.8586 43.6172H32.5969C33.1242 38.1094 37.9289 33.7734 46.3664 33.7734C53.2805 33.7734 59.843 36.8789 59.843 44.5547V66H51.6398V61.6055H51.4055C49.8234 64.5352 46.8352 66.5859 42.0891 66.5859C35.9953 66.5859 31.4836 63.4219 31.4836 57.0938ZM39.8039 56.8594C39.8039 59.3203 41.7961 60.6094 44.55 60.6094C48.4758 60.6094 51.2883 57.9727 51.2297 54.6328V52.2891C49.9113 52.3477 46.2199 52.5527 44.7258 52.6992C41.7375 52.9922 39.8039 54.3984 39.8039 56.8594ZM62.2641 66V23.5781H70.9359V46.3711H71.4047L81.7172 34.1836H91.6781L79.8422 47.9531L92.3227 66H82.1273L73.3969 53.0508L70.9359 55.8047V66H62.2641ZM104.588 66.6445C94.8609 66.6445 88.8844 60.3164 88.8844 50.2383C88.8844 40.3945 94.9195 33.7734 104.236 33.7734C112.615 33.7734 119.177 39.0469 119.177 49.8867V52.3477H97.4391C97.4391 57.1523 100.31 60.1406 104.763 60.1406C107.693 60.1406 109.802 58.8516 110.681 56.918H118.943C117.713 62.7773 112.439 66.6445 104.588 66.6445ZM97.4391 46.8984H110.974C110.974 43.0312 108.279 40.2773 104.412 40.2773C100.427 40.2773 97.5855 43.2363 97.4391 46.8984Z" fill="black"/>
<g clip-path="url(#clip0_1254_6007)">
<path d="M146.966 30.2231L144.554 29.2064C142.411 28.3028 139.952 29.3335 139.062 31.5086L132.707 47.0323C131.816 49.2074 132.832 51.7032 134.975 52.6068L137.387 53.6234C139.53 54.527 141.989 53.4963 142.879 51.3212L149.234 35.7975C150.125 33.6224 149.109 31.1267 146.966 30.2231Z" fill="#F1F1F1"/>
<path d="M132.462 48.1448C132.462 48.1448 142.294 28.5606 136.358 26.3041C130.422 24.0476 122.732 36.9864 120.222 44.1286C117.713 51.2708 113.919 68.1016 121.712 69.5921C129.504 71.0827 137.296 65.8244 141.009 51.3329C141.009 51.3329 142.009 48.1655 140.356 48.8694C138.704 49.5732 125.2 71.7659 137.827 69.8613C150.454 67.9567 158.45 47.9999 158.94 46.9441C159.43 45.8883 164.468 30.4652 156.533 29.9477C156.533 29.9477 152.637 30.134 149.74 32.9495" fill="#F1F1F1"/>
<path d="M132.462 48.1448C132.462 48.1448 142.294 28.5606 136.358 26.3041C130.422 24.0476 122.732 36.9864 120.222 44.1286C117.713 51.2708 113.919 68.1016 121.712 69.5921C129.504 71.0827 137.296 65.8244 141.009 51.3329C141.009 51.3329 142.009 48.1655 140.356 48.8694C138.704 49.5732 125.2 71.7659 137.827 69.8613C150.454 67.9567 158.45 47.9999 158.94 46.9441C159.43 45.8883 164.468 30.4652 156.533 29.9477C156.533 29.9477 152.637 30.134 149.74 32.9495" stroke="black" stroke-width="2" stroke-miterlimit="10"/>
<path d="M137.99 32.929C137.99 32.929 142.437 27.5465 146.252 29.0991C150.067 30.6518 151.025 37.7319 149.699 43.073C148.373 48.4141 144.579 54.6248 144.579 54.6248" stroke="black" stroke-width="2" stroke-miterlimit="10"/>
</g>
<defs>
<clipPath id="clip0_1254_6007">
<rect width="46" height="46" fill="F1F1F1" transform="translate(116 25)"/>
</clipPath>
</defs>
</svg>
